<?xml version="1.0" standalone="no"?>
<!DOCTYPE svg PUBLIC "-//W3C//DTD SVG 20010904//EN"
 "http://www.w3.org/TR/2001/REC-SVG-20010904/DTD/svg10.dtd">
<svg version="1.0" xmlns="http://www.w3.org/2000/svg"
 width="512.000000pt" height="512.000000pt" viewBox="0 0 512.000000 512.000000"
 preserveAspectRatio="xMidYMid meet">
<metadata>
Created by potrace 1.11, written by Peter Selinger 2001-2013
</metadata>
<g transform="translate(0.000000,512.000000) scale(0.100000,-0.100000)"
fill="#000000" stroke="none">
<path d="M461 4748 c-145 -12 -213 -75 -251 -234 -77 -318 -16 -669 159 -930
l32 -47 -24 -61 c-87 -220 -119 -452 -91 -670 46 -359 253 -642 614 -838 57
-31 204 -96 252 -112 16 -5 16 -9 -4 -58 -12 -29 -34 -72 -50 -96 -69 -105
-81 -177 -46 -266 11 -28 22 -76 26 -106 6 -57 6 -66 -4 -264 -6 -132 1 -162
47 -201 l29 -24 -43 -30 c-127 -87 -267 -75 -363 31 -52 58 -77 120 -133 329
-54 202 -55 205 -82 266 -10 24 -19 45 -19 49 0 17 -94 147 -143 195 -98 99
-201 144 -267 116 -68 -29 -105 -89 -97 -158 8 -63 27 -90 93 -134 66 -44 123
-114 152 -186 12 -30 45 -141 72 -248 51 -194 88 -288 143 -370 36 -53 110
-131 124 -131 5 0 18 -9 27 -19 22 -25 108 -67 177 -87 70 -21 187 -24 263 -7
85 20 210 82 293 147 l70 55 78 -59 c169 -126 380 -208 587 -227 40 -4 469 -7
953 -7 l880 -1 45 23 c131 63 180 207 115 336 -14 28 -40 62 -59 76 -19 14
-33 26 -32 28 2 1 237 3 524 5 509 2 521 2 549 23 15 11 36 36 46 55 16 32 17
95 15 985 l-3 950 -28 43 c-19 29 -44 50 -78 66 -50 23 -53 23 -455 23 -222 1
-408 3 -413 6 -5 3 -9 33 -10 66 -1 34 -5 80 -10 103 -5 23 -12 60 -15 82 -9
54 -54 201 -77 249 -10 22 -19 43 -19 47 0 4 16 31 36 61 77 117 138 270 170
428 44 226 0 560 -86 650 -65 67 -117 83 -280 82 -297 -1 -562 -96 -775 -281
-33 -28 -67 -50 -75 -47 -8 2 -60 18 -115 36 -94 29 -111 34 -167 44 -13 3
-54 11 -93 19 -38 8 -77 15 -85 15 -8 0 -35 3 -60 6 -111 16 -332 22 -458 11
-168 -13 -400 -61 -549 -112 l-73 -25 -72 60 c-250 205 -546 298 -867 270z"/>
</g>
</svg>
